<?xml version="1.0" encoding="UTF-8"?>
<svg width="120px" height="43px" viewBox="0 0 120 43" version="1.1" xmlns="http://www.w3.org/2000/svg" xmlns:xlink="http://www.w3.org/1999/xlink">
    <!-- Generator: Sketch 47.1 (45422) - http://www.bohemiancoding.com/sketch -->
    <title>O'Learys_logo_neg</title>
    <desc>Created with Sketch.</desc>
    <defs></defs>
    <g id="Symbols" stroke="none" stroke-width="1" fill="none" fill-rule="evenodd">
        <g id="Logo---O'Learys-/-white" fill="#FFFFFE">
            <g id="O'Learys_logo_neg">
                <path d="M34.1063935,10 C35.6809841,10 39,5.27355162 39,2.18793403 C39,0.877248998 38.1276228,0 36.5105735,0 C34.2021723,0 33.4469678,0.990596912 33.4469678,0.990596912 C33.9362297,2.66255847 34.0744672,3.59121314 34.0744672,5.01540574 C34.0744672,6.64601925 33.3936477,8.71006881 33,9.55618704 C33.351189,9.86589824 33.7339752,10 34.1063935,10" id="Fill-1"></path>
                <path d="M43.3792062,35.1836356 C37.2203396,35.1836356 31.9054603,29.4786808 31.1570467,28.6378386 C33.9392219,25.9048057 36.4472905,20.7998823 39.9968754,15.3145989 C45.0141998,7.57420871 49.8053529,7.11697858 49.8053529,7.11697858 C49.5772522,5.79628863 48.2276442,4.22429211 46.3479284,4.0288643 C41.8920254,3.56542541 37.5965499,8.73509725 34.3084571,15.7568985 C33.1473252,18.2362596 30.389637,24.3470006 27.7707088,26.917719 C26.97436,26.6788299 26.4276307,26.6597602 25.9671256,26.6597602 C23.0794333,26.6597602 20,28.0453464 20,30.615917 C20,32.0301816 21.2182683,32.9475985 23.0890797,32.9475985 C25.2955865,32.9475985 27.5308841,31.5045074 28.0008872,31.2942969 C31.1091114,33.4349854 35.5222733,40 43.4655788,40 C48.5597777,40 50.9102387,37.63964 51.5336941,36.7795802 C52.2916057,35.7285274 52.1477999,34.5816825 50.9390295,33.2533055 C48.329451,34.734536 46.4875788,35.1836356 43.3792062,35.1836356" id="Fill-3"></path>
                <path d="M8.96700052,27.2733287 C7.03359576,27.2733287 6.09116427,26.1735476 6.09116427,23.9162356 C6.09116427,18.7169717 12.1241686,11.6847891 16.2626917,8.31829487 C15.8838256,9.35032829 15.7088949,10.3729606 15.7088949,11.3472443 C15.7088949,14.1832471 16.9038036,16.1992638 19.1576141,16.1992638 C20.1194322,16.1992638 21.3434961,15.9678173 22.4413213,14.6462893 C22.4413213,14.6462893 19.8861913,13.3922105 19.8861913,10.363261 C19.8861913,7.94195185 21.9652214,5.75223836 24.1121798,5.75223836 C25.5500979,5.75223836 26.4148326,6.74592121 26.4148326,8.22174692 C26.4148326,13.5080084 16.6609446,27.2733287 8.96700052,27.2733287 Z M31,7.87450259 C31,5.0384998 29.6496975,2 25.3947042,2 C23.286519,2 21.4019566,2.78118782 19.6822558,4.08346598 C19.3810865,3.57222443 18.7497431,2.83908675 17.8753903,2.83908675 C16.9038036,2.83908675 15.7186633,3.57222443 14.7860003,4.1413649 C8.1022659,8.22174692 0,17.3182949 0,24.8905193 C0,27.1188818 1.23368206,32 7.58724234,32 C20.1777424,32 31,15.9581178 31,7.87450259 L31,7.87450259 Z" id="Fill-4"></path>
                <path d="M112.748342,29 C110.797833,29 109.661006,27.0654017 109,25.4499578 C111.48876,23.7634602 113.349992,22.3498734 114.912502,21 C115.153162,21.9206151 116,23.0499872 116,25.1757258 C116,27.6620178 114.630438,29 112.748342,29 Z M90.8585545,40 C90.3035719,40 90,39.6106295 90,39.0691841 C90,36.2482316 96,33 96,33 C94.4503901,36.6756575 92.659737,40 90.8585545,40 Z M116.902048,18.4554261 C117.85966,17.4497608 119.677672,16.3680688 119.677672,16.3680688 C119.638363,14.6508645 118.59261,13.7400123 117.459017,13.7400123 C115.475155,13.7400123 114.077441,15.4098101 113.657295,17.2313676 C110.647182,20.2674436 107.81305,22.8290134 102.046817,27.3072475 C104.402143,23.5597793 105.87787,21.5769219 107.930219,18.0948132 C108.839149,16.3395955 107.783569,15.3243902 104.861295,15.1347638 C104.861295,15.1347638 104.470328,16.2352423 103.659367,17.6015205 C103.141252,18.445886 101.870837,20.8556961 99.1342195,25.3056037 C98.0201301,27.1176212 97.0136851,27.6393871 95.7332912,27.6393871 C95.0003416,27.6393871 94.4333942,27.1556345 94.4333942,26.4250154 C94.4333942,25.1346171 97.5413242,20.8556961 98.6457377,18.701999 C99.5546677,16.9467813 98.5774016,15.8652362 95.5768137,15.7419497 C95.5768137,15.7419497 95.1858468,16.8424282 94.3943882,18.2180996 C92.459359,21.5483019 89.0484523,28.2750462 85.9990313,28.2750462 C85.3738773,28.2750462 84.924099,27.8862536 84.924099,27.3546541 C84.924099,26.738075 85.363899,25.7228696 86.3314892,24.0720052 L88.491332,20.4098101 C88.7649786,19.9354507 88.9213049,19.4421581 88.9213049,18.9865853 C88.9213049,18.1232865 88.3935147,17.3926674 87.2014133,17.1554877 C85.6082156,16.8615082 84.2108036,16.5104353 82.7250991,15.941116 C83.1845533,14.7646109 82.5981029,13 80.9758774,13 C79.0015399,13 77.3694873,14.7930842 77.3694873,16.3015822 C77.3694873,17.022808 77.9266076,17.5635072 78.053755,17.6869404 C77.652961,19.7646109 72.6781867,28.2844395 69.4822664,28.3224528 C68.9154702,28.2844395 68.6418236,27.9715267 68.6418236,27.3832741 C68.6418236,25.8272228 71.1731303,23.0187865 71.407771,21.5957085 C71.6227574,20.2960636 70.4010236,19.7930842 68.1628665,20.0587372 C68.1628665,20.0587372 66.9706139,21.9658614 65.6903711,23.8917721 C64.224472,26.0930226 62.4846238,27.6110606 61.2630412,27.6110606 C60.5009127,27.6110606 60.1488006,26.9563214 60.1488006,26.1784425 C60.1488006,23.4174127 64.2534997,18.0474066 68.0456974,18.0474066 C70.1372041,18.0474066 71.5640973,19.0720052 71.5640973,19.0720052 C71.5640973,19.0720052 73.2743129,17.99046 73.2743129,16.6337218 C73.2743129,15.4761499 71.6617634,14.6697978 68.8861402,14.6697978 C63.9506742,14.6697978 59.7384819,18.711539 57.3929827,22.1745678 C55.9660895,23.7210791 51.0012935,28.7210791 47.0040876,28.7210791 C45.5088584,28.7210791 44.6096042,27.8576335 44.6096042,26.4156222 C44.6096042,22.0322013 49.8870529,16.747615 52.0665498,16.747615 C52.4575167,16.747615 52.6334972,17.1080811 52.6334972,17.459154 C52.6334972,19.8215575 50.0337033,21.643115 48.1378312,22.4117474 C47.0920779,22.8387002 45.9583343,23.2939795 45.9583343,23.2939795 C46.0951576,25.1158306 47.3754004,25.2769836 48.9586198,24.7456776 C52.59434,23.5217659 56.1322429,20.6565298 56.1322429,17.743887 C56.1322429,15.210497 54.0407362,14.3091848 52.0860528,14.3091848 C46.0169944,14.3091848 39,20.8272228 39,26.9373881 C39,30.0872105 41.2866878,31.9752546 45.1277185,31.9752546 C47.3657245,31.9752546 51.1772739,31.0834825 55.3211302,27.7817536 C55.1156685,30.0587372 56.2495632,31.7286817 58.6928797,31.7286817 C61.2142081,31.7286817 63.5108742,30.1726304 64.8009441,28.3984795 C64.752111,30.6089764 66.1496741,31.8993748 68.4659944,31.8993748 C74.3298934,31.8993748 79.6368233,22.7532803 81.2103669,18.806499 C82.5589457,19.3187249 82.9793939,19.4610914 84.435466,19.8120175 L81.2298699,25.1535504 C80.3794488,26.5767752 79.9986113,27.6774004 79.9986113,28.6736725 C79.9986113,29.9260575 81.0148834,31.9184548 83.7513495,31.9089148 C87.1427532,31.8993748 89.6447298,29.508498 90.299365,28.7210791 C90.4850214,30.0304107 91.9315688,30.8178296 93.2901259,30.8178296 C93.9644153,30.8178296 94.6577542,30.6666569 95.2975732,30.4620601 C90.4933366,32.6862066 86.0774968,35.7152376 86.0774968,39.1384918 C86.0774968,41.766695 88.1980312,43 90.2212019,43 C95.655128,43 97.8246467,36.3776088 100.238784,30.9600493 C102.431888,29.5484193 104.315665,28.3023454 105.95694,27.1770628 C105.542086,27.8187395 105.449258,28.5958846 106.151516,29.4704846 C107.236276,30.8178296 109.796912,31.8993748 112.259732,31.8993748 C116.62825,31.8993748 120,29.2143717 120,25.5141633 C120,21.7854816 116.902048,20.2389703 116.902048,18.4554261 L116.902048,18.4554261 Z" id="Fill-5"></path>
            </g>
        </g>
    </g>
</svg>