<svg id="Layer_1" data-name="Layer 1" xmlns="http://www.w3.org/2000/svg" viewBox="0 0 628.6 520.29"><defs><style>.cls-1{fill:#460027;}</style></defs><title>WKND18 logo__WKND square black</title><polygon class="cls-1" points="340.07 0.71 317.9 0.71 266.74 167.95 211.34 0 164.77 0 109.37 167.95 58.21 0.71 0 0.71 84.33 249.45 131.61 249.45 187.35 87.85 243.1 249.45 290.38 249.45 340.07 102.87 340.07 0.71"/><path class="cls-1" d="M352.52.69h54.72V109.44L508.18.69h66.09L473,106.24,578.89,249.45H513.18L436.07,143.56l-28.79,29.85v76H352.56Z"/><path class="cls-1" d="M185.46,271.51h50.46L352.49,424.67V331.94h54V520.27H359.93L239.49,362.14V520.27h-54Z"/><path class="cls-1" d="M449.53,271.51h-97v49.4h97c44.79,0,75,30.93,75,75v.7c0,44.08-30.19,74.27-75,74.27H419v49.41h30.58c78.19,0,132.2-54.37,132.2-124.38v-.7C581.73,325.17,527.72,271.51,449.53,271.51Z"/><rect class="cls-1" x="579.2" y="470.86" width="49.4" height="49.4"/></svg>