<?xml version="1.0" encoding="UTF-8" standalone="no"?><!DOCTYPE svg PUBLIC "-//W3C//DTD SVG 1.1//EN" "http://www.w3.org/Graphics/SVG/1.1/DTD/svg11.dtd"><svg width="100%" height="100%" viewBox="0 0 30 24" version="1.1" xmlns="http://www.w3.org/2000/svg" xmlns:xlink="http://www.w3.org/1999/xlink" xml:space="preserve" xmlns:serif="http://www.serif.com/" style="fill-rule:evenodd;clip-rule:evenodd;stroke-linejoin:round;stroke-miterlimit:1.41421;"><path d="M9.184,23.731c11.02,0 17.045,-9.129 17.045,-17.045c0,-0.26 -0.005,-0.518 -0.017,-0.775c1.17,-0.846 2.187,-1.901 2.989,-3.102c-1.074,0.477 -2.228,0.798 -3.44,0.943c1.236,-0.742 2.186,-1.915 2.634,-3.314c-1.158,0.687 -2.44,1.186 -3.804,1.454c-1.094,-1.164 -2.65,-1.892 -4.373,-1.892c-3.309,0 -5.992,2.683 -5.992,5.99c0,0.47 0.053,0.928 0.155,1.366c-4.978,-0.25 -9.394,-2.634 -12.348,-6.259c-0.515,0.885 -0.811,1.913 -0.811,3.011c0,2.078 1.057,3.913 2.666,4.987c-0.983,-0.031 -1.907,-0.301 -2.714,-0.75c-0.001,0.025 -0.001,0.05 -0.001,0.076c0,2.902 2.065,5.325 4.806,5.874c-0.503,0.137 -1.032,0.21 -1.579,0.21c-0.386,0 -0.761,-0.038 -1.126,-0.107c0.763,2.38 2.974,4.112 5.597,4.161c-2.051,1.607 -4.634,2.564 -7.441,2.564c-0.484,0 -0.96,-0.028 -1.43,-0.083c2.652,1.699 5.8,2.691 9.184,2.691" style="fill:#1da1f2;fill-rule:nonzero;"/></svg>