<?xml version="1.0" encoding="UTF-8" standalone="no"?><!DOCTYPE svg PUBLIC "-//W3C//DTD SVG 1.1//EN" "http://www.w3.org/Graphics/SVG/1.1/DTD/svg11.dtd"><svg width="100%" height="100%" viewBox="0 0 50 68" version="1.1" xmlns="http://www.w3.org/2000/svg" xmlns:xlink="http://www.w3.org/1999/xlink" xml:space="preserve" xmlns:serif="http://www.serif.com/" style="fill-rule:evenodd;clip-rule:evenodd;stroke-linecap:round;stroke-linejoin:round;stroke-miterlimit:10;"><path d="M24.52,2c12.441,0 22.525,10.085 22.525,22.525c0,4.526 -1.454,8.663 -3.63,12.268c-5.004,8.283 -18.889,28.778 -18.889,28.778c0,0 -13.892,-20.495 -18.895,-28.778c-2.177,-3.605 -3.631,-7.742 -3.631,-12.268c0,-12.44 10.085,-22.525 22.525,-22.525" style="fill:none;stroke:#788897;stroke-width:4px;"/><path d="M34.619,24.466c0,-5.573 -4.524,-10.097 -10.096,-10.097c-5.573,0 -10.097,4.524 -10.097,10.097c0,5.572 4.524,10.096 10.097,10.096c5.572,0 10.096,-4.524 10.096,-10.096Z" style="fill:none;stroke:#788897;stroke-width:4px;"/></svg>