<?xml version="1.0" encoding="UTF-8" standalone="no"?><!DOCTYPE svg PUBLIC "-//W3C//DTD SVG 1.1//EN" "http://www.w3.org/Graphics/SVG/1.1/DTD/svg11.dtd"><svg width="100%" height="100%" viewBox="0 0 79 131" version="1.1" xmlns="http://www.w3.org/2000/svg" xmlns:xlink="http://www.w3.org/1999/xlink" xml:space="preserve" xmlns:serif="http://www.serif.com/" style="fill-rule:evenodd;clip-rule:evenodd;stroke-linejoin:round;stroke-miterlimit:1.41421;"><path d="M30.72,7.68c0,-4.239 -3.441,-7.68 -7.68,-7.68l-15.36,0c-4.239,0 -7.68,3.441 -7.68,7.68l0,115.2c0,4.239 3.441,7.68 7.68,7.68l15.36,0c4.239,0 7.68,-3.441 7.68,-7.68l0,-115.2Z" style="fill:#e80000;"/><path d="M78.234,7.68c0,-4.239 -3.442,-7.68 -7.68,-7.68l-15.36,0c-4.239,0 -7.68,3.441 -7.68,7.68l0,115.2c0,4.239 3.441,7.68 7.68,7.68l15.36,0c4.238,0 7.68,-3.441 7.68,-7.68l0,-115.2Z" style="fill:#e80000;"/></svg>