<?xml version="1.0" encoding="UTF-8" standalone="no"?><!DOCTYPE svg PUBLIC "-//W3C//DTD SVG 1.1//EN" "http://www.w3.org/Graphics/SVG/1.1/DTD/svg11.dtd"><svg width="100%" height="100%" viewBox="0 0 76 86" version="1.1" xmlns="http://www.w3.org/2000/svg" xmlns:xlink="http://www.w3.org/1999/xlink" xml:space="preserve" xmlns:serif="http://www.serif.com/" style="fill-rule:evenodd;clip-rule:evenodd;stroke-linecap:round;stroke-linejoin:round;stroke-miterlimit:10;"><path d="M73,13.5c0,-5.795 -4.705,-10.5 -10.5,-10.5c-5.795,0 -10.5,4.705 -10.5,10.5c0,5.795 4.705,10.5 10.5,10.5c5.795,0 10.5,-4.705 10.5,-10.5Z" style="fill:none;stroke:#fff;stroke-width:6px;"/><path d="M73,13.5c0,-5.795 -4.705,-10.5 -10.5,-10.5c-5.795,0 -10.5,4.705 -10.5,10.5c0,5.795 4.705,10.5 10.5,10.5c5.795,0 10.5,-4.705 10.5,-10.5Z" style="fill:none;stroke:#fff;stroke-width:6px;"/><path d="M35,42c0,-8.831 -7.169,-16 -16,-16c-8.831,0 -16,7.169 -16,16c0,8.831 7.169,16 16,16c8.831,0 16,-7.169 16,-16Z" style="fill:none;stroke:#fff;stroke-width:6px;"/><path d="M35,42c0,-8.831 -7.169,-16 -16,-16c-8.831,0 -16,7.169 -16,16c0,8.831 7.169,16 16,16c8.831,0 16,-7.169 16,-16Z" style="fill:none;stroke:#fff;stroke-width:6px;"/><path d="M73,72.5c0,-5.795 -4.705,-10.5 -10.5,-10.5c-5.795,0 -10.5,4.705 -10.5,10.5c0,5.795 4.705,10.5 10.5,10.5c5.795,0 10.5,-4.705 10.5,-10.5Z" style="fill:none;stroke:#fff;stroke-width:6px;"/><path d="M73,72.5c0,-5.795 -4.705,-10.5 -10.5,-10.5c-5.795,0 -10.5,4.705 -10.5,10.5c0,5.795 4.705,10.5 10.5,10.5c5.795,0 10.5,-4.705 10.5,-10.5Z" style="fill:none;stroke:#fff;stroke-width:6px;"/><path d="M42.695,56.848l10.392,8.043" style="fill:none;stroke:#fff;stroke-width:6px;"/><path d="M42.695,56.848l10.392,8.043" style="fill:none;stroke:#fff;stroke-width:6px;"/><path d="M52.087,18.934l-19.957,12.913" style="fill:none;stroke:#fff;stroke-width:6px;"/><path d="M52.087,18.934l-19.957,12.913" style="fill:none;stroke:#fff;stroke-width:6px;"/></svg>